# xmcd CD database file
#
# Track frame offsets:
#	150
#	12652
#	27665
#	38702
#	52010
#	71125
#	85965
#	103670
#	118547
#	133682
#	146035
#	159937
#
# Disc length: 2281 seconds
#
# Revision: 0
# Processed by: cddbd v1.4PL0 Copyright (c) Steve Scherf et al.
# Submitted via: CDex 1.50beta9
#
DISCID=ac08e70c
DTITLE=SHAWN CUDDY - JUST FOR YOU
DYEAR=1900
DGENRE=Country
TTITLE0=Doing It By The Book
TTITLE1=Veil Of Whitelace
TTITLE2=Sweet Gyosy Rose
TTITLE3=Here Today 'Gone Tomorrow'
TTITLE4=Patches
TTITLE5=Whiskey On A Sunday
TTITLE6=The Cowboy Rides Away
TTITLE7=The Unicorn
TTITLE8=I Don't Have Far To Fall
TTITLE9=Mamma's Roses
TTITLE10=You Don't Know Love
TTITLE11=Don't Tell Me Your Troubles
EXTD=
EXTT0=
EXTT1=
EXTT2=
EXTT3=
EXTT4=
EXTT5=
EXTT6=
EXTT7=
EXTT8=
EXTT9=
EXTT10=
EXTT11=
PLAYORDER=
